<?xml version="1.0" encoding="UTF-8"?>
<svg xmlns="http://www.w3.org/2000/svg" viewBox="0 0 1584 672" width="1584" height="672">
<path d="M0.24 0.24C528.08 0.24 1055.92 0.24 1583.76 0.24C1583.76 224.21 1583.76 448.19 1583.76 672.16C1055.92 672.16 528.08 672.16 0.24 672.16C0.24 448.19 0.24 224.21 0.24 0.24ZM323.49 483.92C401.47 475.78 460.14 408.75 456.7 330.08C456.01 314.32 452.51 298.27 446.74 283.6C439.19 264.38 427.48 247.2 412.92 232.64C399.88 219.6 384.23 209.16 367.24 202C349.67 194.6 330.37 190.42 311.24 190.44C233.26 190.52 166.37 255.79 164.7 333.85C163.46 391.88 198.01 446.01 250.24 470.65C263.25 476.79 283.94 484.38 298.32 483.58C300.25 471.11 298.43 453.39 298.61 440.26C298.71 432.84 302.96 425.73 311.24 425.84C319.89 425.95 322.81 433.96 322.86 441.2C322.92 450.3 322.88 459.41 322.89 468.51C322.89 473.53 322.12 479.13 323.49 483.92ZM339.5 465.43C334.25 447.94 346.33 429.99 327.09 415.42C324.45 413.43 321.58 412.15 318.49 411.07C318.49 401.18 318.49 391.29 318.49 381.4C332.14 380.14 352.3 385.72 362.12 373.88C368.26 366.48 367.17 354.22 367.96 345.15C370 321.62 371.78 298.05 373.62 274.5C374.31 265.69 370.66 257.51 361.87 254.54C353.4 251.67 342.69 253.35 333.85 253.33C315.64 253.31 297.43 253.33 279.22 253.36C269.97 253.37 258.44 251.73 251.86 259.86C245.45 267.78 247.86 278.39 248.73 287.7C250.61 307.78 252.51 327.87 254.02 347.97C254.75 357.67 253.87 369.22 261.69 376.33C270.97 384.79 291.15 380.5 303.07 381.35C303.07 391.26 303.07 401.16 303.07 411.07C298.72 413.76 294.09 415.13 290.54 419.1C281.43 429.32 283.02 441.66 282.99 454.39C282.98 458.11 283.21 461.94 282.05 465.33C227.81 451.77 186.47 404.8 181.17 348.87C179.02 326.21 183.65 303.43 192.75 282.73C198.59 269.44 207.25 256.54 217.56 246.28C229.38 234.54 242.79 224.81 257.99 217.96C274.39 210.56 292.26 206.36 310.3 206.3C327.28 206.24 344.87 209.6 360.5 216.26C375.76 222.77 389.16 232.05 401.19 243.43C411.41 253.1 419.63 264.4 426.18 276.84C432.16 288.19 435.94 300.3 438.29 312.88C451.27 382.53 407.72 448.32 339.5 465.43ZM1234.15 255.68C1217.7 255.84 1219.57 280.58 1236.97 278.04C1250.8 276.03 1248.63 255.55 1234.15 255.68ZM577 259.42C562.2 260.14 547.67 266.02 538.01 277.59C514.3 305.98 520.32 362.53 556.56 378.1C565.08 381.76 574.21 382.82 583.41 382.38C645.19 379.45 652.58 280.04 598.05 262.26C591.37 260.08 584.03 259.08 577 259.42ZM1003.51 332.9C1009.23 327.88 1015.53 325.58 1019.75 318.6C1022.95 313.3 1024.62 307.29 1025.05 301.14C1025.34 296.92 1025.04 292.6 1023.97 288.49C1016.51 259.99 991.86 261.3 967.63 261.33C958.19 261.34 948.5 260.68 939.1 261.33C937.63 269.38 938.6 278.53 938.63 286.76C938.69 302.76 938.74 318.78 938.61 334.79C938.53 344.52 938.65 354.25 938.64 363.98C938.64 369.55 937.94 375.55 939.38 380.88C945.81 380.88 952.24 380.88 958.66 380.88C958.66 365.82 958.66 350.76 958.66 335.69C966.68 335.69 974.69 335.69 982.7 335.69C990.55 350.54 998.4 365.39 1006.24 380.24C1012.85 381.41 1022.28 381.85 1028.68 379.99C1020.29 364.29 1011.9 348.6 1003.51 332.9ZM310.46 273.36C319.59 271.16 318.64 282.08 318.7 287.7C318.86 305.28 318.65 322.86 318.73 340.44C318.76 346 320.84 358.16 312.19 358.05C304.09 357.93 305.88 347.7 305.86 342.32C305.8 325.37 305.82 308.42 305.83 291.47C305.83 286.47 303.67 274.99 310.46 273.36ZM273.84 274.37C282.54 270.96 282.09 282.52 282.37 287.7C283.31 304.97 284.37 322.24 285.54 339.5C285.88 344.59 289.29 357.59 281.11 358.03C273.26 358.45 275.03 348.41 274.59 343.4C273.14 326.72 272.67 309.91 271.64 293.19C271.37 288.87 268.92 276.3 273.84 274.37ZM342.61 274.4C352.02 269.73 350.99 281.88 350.64 286.76C349.39 304.3 348.72 321.93 347.8 339.5C347.53 344.69 349.47 358.1 341.38 358.03C333.44 357.97 336.17 346.29 336.53 341.39C337.74 324.46 338.3 307.47 339.38 290.53C339.64 286.43 338.19 276.59 342.61 274.4ZM573.33 277.3C624.25 270.02 628.99 360.58 581.92 364.9C549.45 367.87 540.49 331.71 546.12 306.53C549.2 292.73 558.29 279.45 573.33 277.3ZM958.71 319.18C958.71 305.34 958.71 291.49 958.71 277.64C967.5 276.21 988.88 276.18 996.34 281.12C1008.77 289.38 1007.3 309.85 994.4 316.81C985.66 321.52 968.56 319.71 958.71 319.18ZM669.42 368.9C675.09 373.07 679.04 378.92 686.31 381.05C717.16 390.07 734.81 361.92 734.3 334.79C733.8 308.17 716.26 282.15 686.19 291.23C677.15 293.95 675.13 300.79 668.84 304.04C668.84 299.79 668.84 295.53 668.84 291.27C662.54 291.27 656.24 291.27 649.94 291.27C649.94 332.78 649.94 374.29 649.94 415.79C656.43 415.79 662.93 415.79 669.42 415.79C669.42 400.16 669.42 384.53 669.42 368.9ZM827.32 341.09C829.28 328.15 826.08 311.34 816.64 301.67C796.04 280.56 758.4 288.84 748 316.15C739.52 338.38 745.61 366.43 767.6 378.01C787.11 388.29 821.05 381.98 826.03 357.39C820.49 356.31 814.96 355.23 809.42 354.16C805.71 358.51 803.63 362.89 797.92 365.16C780.4 372.14 764.03 359.08 764.22 341.09C785.25 341.09 806.28 341.09 827.32 341.09ZM918.66 380.86C920.65 372.46 919.28 362.32 919.28 353.62C919.27 333.41 924.92 299.4 900.2 291.55C897 290.53 893.77 290.07 890.41 289.97C886.06 289.85 881.78 290.14 877.61 291.44C869.89 293.86 866.76 300.06 860.72 304.25C860.72 299.91 860.72 295.58 860.72 291.24C854.41 291.24 848.1 291.24 841.78 291.24C841.78 321.11 841.78 350.98 841.78 380.84C847.88 380.97 855.53 382.11 861.15 379.99C861.7 367.79 861.32 355.48 861.29 343.26C861.28 336.81 860.62 329.92 861.93 323.56C864.07 313.22 873.26 305.6 883.82 306.24C894.74 306.9 899.37 316.59 899.91 326.33C900.59 338.51 899.99 350.85 899.97 363.04C899.96 368.85 899.25 375.32 900.77 380.86C906.73 380.86 912.7 380.86 918.66 380.86ZM1118.31 341.11C1121.13 324.3 1114.71 304.56 1099.87 295.32C1076.98 281.08 1045.95 294.02 1038.09 318.99C1031.67 339.39 1036.67 364.53 1055.4 376.51C1075.35 389.28 1110.99 382.66 1117.29 357.39C1111.9 355.63 1105.07 353.84 1099.48 354.48C1087.04 377.36 1054.09 366.62 1055.15 341.11C1076.2 341.11 1097.26 341.11 1118.31 341.11ZM1210.4 321.34C1206.63 292.28 1174.1 281.67 1150 295.36C1136.29 303.15 1129.24 319.49 1129.1 334.79C1128.94 353.77 1137.19 373.35 1156.32 380.05C1174.47 386.41 1198.32 381.46 1207.22 362.97C1209.03 359.2 1210.66 354.96 1210.6 350.82C1204.64 350.82 1198.67 350.82 1192.71 350.82C1190.1 355.04 1188.73 359.73 1184.48 362.83C1181.65 364.89 1178.29 366.11 1174.82 366.42C1155.55 368.19 1148.63 351.11 1148.84 334.79C1148.97 325.11 1152.14 315.27 1160.2 309.35C1172.4 300.41 1187.86 307.88 1191.77 321.34C1197.98 321.34 1204.19 321.34 1210.4 321.34ZM1283.12 368.59C1287.29 373.03 1290.99 377.48 1296.73 380.01C1300.78 381.79 1305.08 382.47 1309.48 382.48C1336.96 382.6 1348.55 357.03 1347.58 332.9C1346.51 306.63 1328.29 283.03 1299.48 291.43C1290.15 294.14 1288.59 300.22 1281.9 304.8C1281.9 300.27 1281.9 295.75 1281.9 291.22C1275.64 291.22 1269.37 291.22 1263.11 291.22C1263.11 332.72 1263.11 374.22 1263.11 415.72C1269.47 415.72 1275.82 415.72 1282.17 415.72C1283.33 405.27 1282.51 394.29 1282.49 383.76C1282.49 379.01 1281.46 372.91 1283.12 368.59ZM1440.39 340.83C1442.63 327.23 1438.61 309.15 1427.9 299.73C1406.7 281.08 1370.97 289.71 1361.2 316.28C1354.09 335.64 1356.98 361.02 1374.1 374.25C1394.46 389.98 1431.68 383.94 1439.32 357.39C1433.71 356.25 1428.1 355.11 1422.49 353.98C1418.66 358.12 1416.65 362.73 1410.92 365.05C1393.96 371.95 1377.51 359.62 1377.29 341.97C1382.54 339.87 1390.38 341.14 1396.12 341.11C1410.74 341.02 1425.84 342.2 1440.39 340.83ZM1244.1 291.25C1237.59 291.25 1231.08 291.25 1224.56 291.25C1224.56 321.13 1224.56 351.01 1224.56 380.89C1231.08 380.89 1237.59 380.89 1244.1 380.89C1244.1 351.01 1244.1 321.13 1244.1 291.25ZM807.83 327.37C793.56 327.37 779.29 327.37 765.03 327.37C763.15 306.64 796.8 294.51 806.29 318.64C807.47 321.64 808.06 324.21 807.83 327.37ZM1099.48 326.85C1092.23 328.72 1076.58 327.46 1068.4 327.47C1064.16 327.47 1059.01 328.16 1055.22 326.44C1056.66 318.57 1061.27 310.91 1068.64 307.28C1083.39 300 1098.58 311.58 1099.48 326.85ZM1421.55 327.37C1407.08 327.37 1392.62 327.37 1378.15 327.37C1376.52 313.74 1391.81 303.37 1404.31 305.54C1414.62 307.33 1421.42 317.33 1421.55 327.37ZM687.12 306.34C711.07 301.44 717.7 329.31 713.18 347.2C710.87 356.37 705.6 364.78 695.43 366.06C672.54 368.95 667.14 344.87 669.82 327.29C671.18 318.41 677.73 308.25 687.12 306.34ZM1300.33 306.44C1333.92 299.31 1337.08 362.3 1308.51 366.1C1276.37 370.37 1272.9 312.26 1300.33 306.44Z" fill="#161e21" fill-rule="evenodd" stroke="#161e21" stroke-width="0.25" stroke-linejoin="round"/>
<path d="M323.49 483.92C322.12 479.13 322.89 473.53 322.89 468.51C322.88 459.41 322.92 450.3 322.86 441.2C322.81 433.96 319.89 425.95 311.24 425.84C302.96 425.73 298.71 432.84 298.61 440.26C298.43 453.39 300.25 471.11 298.32 483.58C283.94 484.38 263.25 476.79 250.24 470.65C198.01 446.01 163.46 391.88 164.7 333.85C166.37 255.79 233.26 190.52 311.24 190.44C330.37 190.42 349.67 194.6 367.24 202C384.23 209.16 399.88 219.6 412.92 232.64C427.48 247.2 439.19 264.38 446.74 283.6C452.51 298.27 456.01 314.32 456.7 330.08C460.14 408.75 401.47 475.78 323.49 483.92ZM339.5 465.43C407.72 448.32 451.27 382.53 438.29 312.88C435.94 300.3 432.16 288.19 426.18 276.84C419.63 264.4 411.41 253.1 401.19 243.43C389.16 232.05 375.76 222.77 360.5 216.26C344.87 209.6 327.28 206.24 310.3 206.3C292.26 206.36 274.39 210.56 257.99 217.96C242.79 224.81 229.38 234.54 217.56 246.28C207.25 256.54 198.59 269.44 192.75 282.73C183.65 303.43 179.02 326.21 181.17 348.87C186.47 404.8 227.81 451.77 282.05 465.33C283.21 461.94 282.98 458.11 282.99 454.39C283.02 441.66 281.43 429.32 290.54 419.1C294.09 415.13 298.72 413.76 303.07 411.07C303.07 401.16 303.07 391.26 303.07 381.35C291.15 380.5 270.97 384.79 261.69 376.33C253.87 369.22 254.75 357.67 254.02 347.97C252.51 327.87 250.61 307.78 248.73 287.7C247.86 278.39 245.45 267.78 251.86 259.86C258.44 251.73 269.97 253.37 279.22 253.36C297.43 253.33 315.64 253.31 333.85 253.33C342.69 253.35 353.4 251.67 361.87 254.54C370.66 257.51 374.31 265.69 373.62 274.5C371.78 298.05 370 321.62 367.96 345.15C367.17 354.22 368.26 366.48 362.12 373.88C352.3 385.72 332.14 380.14 318.49 381.4C318.49 391.29 318.49 401.18 318.49 411.07C321.58 412.15 324.45 413.43 327.09 415.42C346.33 429.99 334.25 447.94 339.5 465.43ZM1234.15 255.68C1248.63 255.55 1250.8 276.03 1236.97 278.04C1219.57 280.58 1217.7 255.84 1234.15 255.68ZM577 259.42C584.03 259.08 591.37 260.08 598.05 262.26C652.58 280.04 645.19 379.45 583.41 382.38C574.21 382.82 565.08 381.76 556.56 378.1C520.32 362.53 514.3 305.98 538.01 277.59C547.67 266.02 562.2 260.14 577 259.42ZM1003.51 332.9C1011.9 348.6 1020.29 364.29 1028.68 379.99C1022.28 381.85 1012.85 381.41 1006.24 380.24C998.4 365.39 990.55 350.54 982.7 335.69C974.69 335.69 966.68 335.69 958.66 335.69C958.66 350.76 958.66 365.82 958.66 380.88C952.24 380.88 945.81 380.88 939.38 380.88C937.94 375.55 938.64 369.55 938.64 363.98C938.65 354.25 938.53 344.52 938.61 334.79C938.74 318.78 938.69 302.76 938.63 286.76C938.6 278.53 937.63 269.38 939.1 261.33C948.5 260.68 958.19 261.34 967.63 261.33C991.86 261.3 1016.51 259.99 1023.97 288.49C1025.04 292.6 1025.34 296.92 1025.05 301.14C1024.62 307.29 1022.95 313.3 1019.75 318.6C1015.53 325.58 1009.23 327.88 1003.51 332.9ZM310.46 273.36C303.67 274.99 305.83 286.47 305.83 291.47C305.82 308.42 305.8 325.37 305.86 342.32C305.88 347.7 304.09 357.93 312.19 358.05C320.84 358.16 318.76 346 318.73 340.44C318.65 322.86 318.86 305.28 318.7 287.7C318.64 282.08 319.59 271.16 310.46 273.36ZM273.84 274.37C268.92 276.3 271.37 288.87 271.64 293.19C272.67 309.91 273.14 326.72 274.59 343.4C275.03 348.41 273.26 358.45 281.11 358.03C289.29 357.59 285.88 344.59 285.54 339.5C284.37 322.24 283.31 304.97 282.37 287.7C282.09 282.52 282.54 270.96 273.84 274.37ZM342.61 274.4C338.19 276.59 339.64 286.43 339.38 290.53C338.3 307.47 337.74 324.46 336.53 341.39C336.17 346.29 333.44 357.97 341.38 358.03C349.47 358.1 347.53 344.69 347.8 339.5C348.72 321.93 349.39 304.3 350.64 286.76C350.99 281.88 352.02 269.73 342.61 274.4ZM573.33 277.3C558.29 279.45 549.2 292.73 546.12 306.53C540.49 331.71 549.45 367.87 581.92 364.9C628.99 360.58 624.25 270.02 573.33 277.3ZM958.71 319.18C968.56 319.71 985.66 321.52 994.4 316.81C1007.3 309.85 1008.77 289.38 996.34 281.12C988.88 276.18 967.5 276.21 958.71 277.64C958.71 291.49 958.71 305.34 958.71 319.18ZM669.42 368.9C669.42 384.53 669.42 400.16 669.42 415.79C662.93 415.79 656.43 415.79 649.94 415.79C649.94 374.29 649.94 332.78 649.94 291.27C656.24 291.27 662.54 291.27 668.84 291.27C668.84 295.53 668.84 299.79 668.84 304.04C675.13 300.79 677.15 293.95 686.19 291.23C716.26 282.15 733.8 308.17 734.3 334.79C734.81 361.92 717.16 390.07 686.31 381.05C679.04 378.92 675.09 373.07 669.42 368.9ZM827.32 341.09C806.28 341.09 785.25 341.09 764.22 341.09C764.03 359.08 780.4 372.14 797.92 365.16C803.63 362.89 805.71 358.51 809.42 354.16C814.96 355.23 820.49 356.31 826.03 357.39C821.05 381.98 787.11 388.29 767.6 378.01C745.61 366.43 739.52 338.38 748 316.15C758.4 288.84 796.04 280.56 816.64 301.67C826.08 311.34 829.28 328.15 827.32 341.09ZM918.66 380.86C912.7 380.86 906.73 380.86 900.77 380.86C899.25 375.32 899.96 368.85 899.97 363.04C899.99 350.85 900.59 338.51 899.91 326.33C899.37 316.59 894.74 306.9 883.82 306.24C873.26 305.6 864.07 313.22 861.93 323.56C860.62 329.92 861.28 336.81 861.29 343.26C861.32 355.48 861.7 367.79 861.15 379.99C855.53 382.11 847.88 380.97 841.78 380.84C841.78 350.98 841.78 321.11 841.78 291.24C848.1 291.24 854.41 291.24 860.72 291.24C860.72 295.58 860.72 299.91 860.72 304.25C866.76 300.06 869.89 293.86 877.61 291.44C881.78 290.14 886.06 289.85 890.41 289.97C893.77 290.07 897 290.53 900.2 291.55C924.92 299.4 919.27 333.41 919.28 353.62C919.28 362.32 920.65 372.46 918.66 380.86ZM1118.31 341.11C1097.26 341.11 1076.2 341.11 1055.15 341.11C1054.09 366.62 1087.04 377.36 1099.48 354.48C1105.07 353.84 1111.9 355.63 1117.29 357.39C1110.99 382.66 1075.35 389.28 1055.4 376.51C1036.67 364.53 1031.67 339.39 1038.09 318.99C1045.95 294.02 1076.98 281.08 1099.87 295.32C1114.71 304.56 1121.13 324.3 1118.31 341.11ZM1210.4 321.34C1204.19 321.34 1197.98 321.34 1191.77 321.34C1187.86 307.88 1172.4 300.41 1160.2 309.35C1152.14 315.27 1148.97 325.11 1148.84 334.79C1148.63 351.11 1155.55 368.19 1174.82 366.42C1178.29 366.11 1181.65 364.89 1184.48 362.83C1188.73 359.73 1190.1 355.04 1192.71 350.82C1198.67 350.82 1204.64 350.82 1210.6 350.82C1210.66 354.96 1209.03 359.2 1207.22 362.97C1198.32 381.46 1174.47 386.41 1156.32 380.05C1137.19 373.35 1128.94 353.77 1129.1 334.79C1129.24 319.49 1136.29 303.15 1150 295.36C1174.1 281.67 1206.63 292.28 1210.4 321.34ZM1283.12 368.59C1281.46 372.91 1282.49 379.01 1282.49 383.76C1282.51 394.29 1283.33 405.27 1282.17 415.72C1275.82 415.72 1269.47 415.72 1263.11 415.72C1263.11 374.22 1263.11 332.72 1263.11 291.22C1269.37 291.22 1275.64 291.22 1281.9 291.22C1281.9 295.75 1281.9 300.27 1281.9 304.8C1288.59 300.22 1290.15 294.14 1299.48 291.43C1328.29 283.03 1346.51 306.63 1347.58 332.9C1348.55 357.03 1336.96 382.6 1309.48 382.48C1305.08 382.47 1300.78 381.79 1296.73 380.01C1290.99 377.48 1287.29 373.03 1283.12 368.59ZM1440.39 340.83C1425.84 342.2 1410.74 341.02 1396.12 341.11C1390.38 341.14 1382.54 339.87 1377.29 341.97C1377.51 359.62 1393.96 371.95 1410.92 365.05C1416.65 362.73 1418.66 358.12 1422.49 353.98C1428.1 355.11 1433.71 356.25 1439.32 357.39C1431.68 383.94 1394.46 389.98 1374.1 374.25C1356.98 361.02 1354.09 335.64 1361.2 316.28C1370.97 289.71 1406.7 281.08 1427.9 299.73C1438.61 309.15 1442.63 327.23 1440.39 340.83ZM1244.1 291.25C1244.1 321.13 1244.1 351.01 1244.1 380.89C1237.59 380.89 1231.08 380.89 1224.56 380.89C1224.56 351.01 1224.56 321.13 1224.56 291.25C1231.08 291.25 1237.59 291.25 1244.1 291.25ZM807.83 327.37C808.06 324.21 807.47 321.64 806.29 318.64C796.8 294.51 763.15 306.64 765.03 327.37C779.29 327.37 793.56 327.37 807.83 327.37ZM1099.48 326.85C1098.58 311.58 1083.39 300 1068.64 307.28C1061.27 310.91 1056.66 318.57 1055.22 326.44C1059.01 328.16 1064.16 327.47 1068.4 327.47C1076.58 327.46 1092.23 328.72 1099.48 326.85ZM1421.55 327.37C1421.42 317.33 1414.62 307.33 1404.31 305.54C1391.81 303.37 1376.52 313.74 1378.15 327.37C1392.62 327.37 1407.08 327.37 1421.55 327.37ZM687.12 306.34C677.73 308.25 671.18 318.41 669.82 327.29C667.14 344.87 672.54 368.95 695.43 366.06C705.6 364.78 710.87 356.37 713.18 347.2C717.7 329.31 711.07 301.44 687.12 306.34ZM1300.33 306.44C1272.9 312.26 1276.37 370.37 1308.51 366.1C1337.08 362.3 1333.92 299.31 1300.33 306.44Z" fill="#e0e2df" fill-rule="evenodd" stroke="#e0e2df" stroke-width="0.25" stroke-linejoin="round"/>
</svg>