<?xml version="1.0" encoding="UTF-8"?>
<svg id="Layer_1" data-name="Layer 1" xmlns="http://www.w3.org/2000/svg" viewBox="0 0 166.56 22.84">
  <path d="M0,22.32v-.78h2.73V1.22H0V.44h8.97v.78h-3.08v20.31h5.9c2.73,0,3.96-3.31,4.4-5.41h.62l-.35,6.1-16.45.09ZM25.43,22.32v-.78h2.9V1.22h-2.9V.44h16.72v5.32h-.7c-.53-3.92-2.64-4.62-5.63-4.62h-4.31v9.42c3.34,0,4.4,0,4.84-3.49h.7v8.28h-.7c-.18-3.49-1.58-3.92-4.84-3.92v10.11h3.96c4.4,0,5.81-.52,6.69-5.41h.88l-.44,6.1-17.16.09ZM72.24,22.32v-.78h2.73V1.22h-2.29c-3.17,0-3.43,2.35-4.14,5.58h-.88l.35-6.28h17.07l.26,6.28h-.88c-.35-3.14-1.5-5.58-4.93-5.58h-1.5v20.31h2.73v.78h-8.53ZM94.5,11.42c0-5.75,3.78-11.42,9.5-11.42s9.5,5.58,9.5,11.42-3.78,11.42-9.5,11.42-9.5-5.67-9.5-11.42ZM109.72,11.42c0-6.8-1.14-10.64-5.72-10.64s-5.72,3.92-5.72,10.64,1.14,10.64,5.72,10.64,5.72-3.92,5.72-10.64ZM127.05,22.32v-.78h2.73V1.22h-2.29c-3.17,0-3.43,2.35-4.14,5.58h-.88l.35-6.28h16.98l.26,6.28h-.88c-.35-3.14-1.5-5.58-4.93-5.58h-1.5v20.31h2.73v.78h-8.45ZM148.87,22.32v-.78h2.9V1.22h-2.9V.44h16.72v5.32h-.7c-.53-3.92-2.64-4.62-5.63-4.62h-4.31v9.42c3.34,0,4.4,0,4.84-3.49h.7v8.28h-.62c-.18-3.49-1.58-3.92-4.84-3.92v10.11h3.96c4.4,0,5.81-.52,6.69-5.41h.88l-.44,6.1-17.25.09Z"/>
</svg>